<svg width="400" height="400" viewBox="0 0 400 400" fill="none" xmlns="http://www.w3.org/2000/svg">
<g clip-path="url(#clip0_102_98)">
<rect width="400" height="400" rx="200" fill="white"/>
<circle cx="200" cy="200" r="200" fill="#9F6000"/>
<circle cx="200" cy="200" r="175" fill="white"/>
<path d="M125.837 203C122.037 203 118.537 202.05 115.337 200.15C112.237 198.25 109.737 195.75 107.837 192.65C105.937 189.45 104.987 185.95 104.987 182.15V173.9H124.787V181.25C124.787 181.75 124.937 182.2 125.237 182.6C125.637 182.9 126.087 183.05 126.587 183.05H191.237C191.737 183.05 192.137 182.9 192.437 182.6C192.837 182.2 193.037 181.75 193.037 181.25V160.7C193.037 160.2 192.837 159.8 192.437 159.5C192.137 159.2 191.737 159.05 191.237 159.05H125.837C122.037 159.05 118.537 158.1 115.337 156.2C112.237 154.3 109.737 151.8 107.837 148.7C105.937 145.5 104.987 141.95 104.987 138.05V115.85C104.987 112.05 105.937 108.6 107.837 105.5C109.737 102.3 112.237 99.75 115.337 97.85C118.537 95.95 122.037 95 125.837 95H192.137C195.937 95 199.387 95.95 202.487 97.85C205.687 99.75 208.237 102.3 210.137 105.5C212.037 108.6 212.987 112.05 212.987 115.85V124.1H193.037V116.75C193.037 116.25 192.837 115.85 192.437 115.55C192.137 115.15 191.737 114.95 191.237 114.95H126.587C126.087 114.95 125.637 115.15 125.237 115.55C124.937 115.85 124.787 116.25 124.787 116.75V137.3C124.787 137.8 124.937 138.2 125.237 138.5C125.637 138.8 126.087 138.95 126.587 138.95H192.137C195.937 138.95 199.387 139.9 202.487 141.8C205.687 143.7 208.237 146.25 210.137 149.45C212.037 152.55 212.987 156.05 212.987 159.95V182.15C212.987 185.95 212.037 189.45 210.137 192.65C208.237 195.75 205.687 198.25 202.487 200.15C199.387 202.05 195.937 203 192.137 203H125.837Z" fill="#9F6000"/>
<path d="M230.975 312V271.5L181.175 204H204.575L241.025 249.75L277.025 204H300.875L250.925 271.65V312H230.975Z" fill="#9F6000"/>
<circle cx="130" cy="287" r="25" fill="#9F6000"/>
<circle cx="276" cy="120" r="25" fill="#9F6000"/>
</g>
<defs>
<clipPath id="clip0_102_98">
<rect width="400" height="400" rx="200" fill="white"/>
</clipPath>
</defs>
</svg>
