<?xml version="1.0" encoding="UTF-8"?>
<!DOCTYPE svg PUBLIC "-//W3C//DTD SVG 1.1//EN" "http://www.w3.org/Graphics/SVG/1.1/DTD/svg11.dtd">
<!-- Creator: CorelDRAW X7 -->
<svg xmlns="http://www.w3.org/2000/svg" xml:space="preserve" width="300mm" height="300mm" version="1.1" style="shape-rendering:geometricPrecision; text-rendering:geometricPrecision; image-rendering:optimizeQuality; fill-rule:evenodd; clip-rule:evenodd"
viewBox="0 0 30000 30000"
 xmlns:xlink="http://www.w3.org/1999/xlink">
 <defs>
  <style type="text/css">
   <![CDATA[
    .str3 {stroke:#323232;stroke-width:150;stroke-opacity:0.690196}
    .str0 {stroke:#323232;stroke-width:175.96;stroke-opacity:0.690196}
    .str2 {stroke:#323232;stroke-width:175.96;stroke-opacity:0.690196}
    .str1 {stroke:#323232;stroke-width:175.96;stroke-opacity:0.690196}
    .str7 {stroke:#FBFBFB;stroke-width:250;stroke-linecap:round;stroke-linejoin:round;stroke-opacity:0.941176}
    .str5 {stroke:#FBFBFB;stroke-width:250;stroke-linecap:round;stroke-linejoin:round;stroke-opacity:0.941176}
    .str6 {stroke:#FBFBFB;stroke-width:250;stroke-linecap:round;stroke-linejoin:round;stroke-opacity:0.941176}
    .str4 {stroke:#323232;stroke-width:175.96}
    .fil0 {fill:none}
    .fil2 {fill:none}
    .fil4 {fill:none}
    .fil3 {fill:#323232}
    .fil1 {fill:url(#id0);fill-opacity:0.921569}
   ]]>
  </style>
  <linearGradient id="id0" gradientUnits="userSpaceOnUse" x1="19607.9" y1="8088.39" x2="10392.1" y2="19795">
   <stop offset="0" style="stop-opacity:1; stop-color:#36B49E"/>
   <stop offset="1" style="stop-opacity:1; stop-color:#068F7C"/>
  </linearGradient>
 </defs>
 <g id="Layer_x0020_1">
  <metadata id="CorelCorpID_0Corel-Layer"/>
  <g id="_370200128">
   <rect class="fil0" x="6800" y="5742" width="16400" height="16400"/>
   <g>
    <g>
     <polygon class="fil1" points="11334,8655 15000,6538 18666,8655 18666,12888 22322,14995 22322,19228 18656,21345 15010,19228 11344,21345 7678,19228 7678,14995 11334,12888 "/>
     <polygon class="fil2 str0" points="12690,10998 13267,9998 13845,8997 15000,8997 16155,8997 16733,9998 17310,10998 16733,11999 16155,12999 15000,12999 13845,12999 13267,11999 "/>
     <polygon class="fil2 str1" points="16155,17001 16733,16000 17310,15000 18466,15000 19621,15000 20198,16000 20776,17001 20198,18001 19621,19002 18466,19002 17310,19002 16733,18001 "/>
     <polygon class="fil2 str2" points="9224,17001 9802,16000 10379,15000 11534,15000 12690,15000 13267,16000 13845,17001 13267,18001 12690,19002 11534,19002 10379,19002 9802,18001 "/>
     <line class="fil2 str3" x1="16155" y1="8997" x2="16833" y2= "7597" />
     <line class="fil2 str3" x1="17310" y1="10998" x2="18666" y2= "10998" />
     <line class="fil2 str3" x1="13845" y1="8997" x2="13069" y2= "7653" />
     <line class="fil2 str3" x1="12690" y1="10998" x2="11334" y2= "10998" />
     <line class="fil2 str3" x1="19621" y1="15000" x2="20296" y2= "13828" />
     <line class="fil2 str3" x1="20776" y1="17001" x2="22322" y2= "17001" />
     <line class="fil2 str3" x1="19621" y1="19002" x2="20394" y2= "20342" />
     <line class="fil2 str3" x1="17310" y1="19002" x2="16632" y2= "20170" />
     <line class="fil2 str3" x1="12690" y1="19002" x2="13368" y2= "20176" />
     <line class="fil2 str3" x1="10379" y1="19002" x2="9606" y2= "20342" />
     <line class="fil2 str3" x1="9224" y1="17001" x2="7678" y2= "17001" />
     <line class="fil2 str3" x1="10379" y1="15000" x2="9704" y2= "13828" />
    </g>
    <g>
     <polygon class="fil3 str4" points="12690,15000 13267,14000 13845,12999 15000,12999 16155,12999 16733,14000 17310,15000 16733,16000 16155,17001 15000,17001 13845,17001 13267,16000 "/>
     <g>
      <polyline class="fil4 str5" points="14315,13637 13529,15000 14315,16363 "/>
      <polyline class="fil4 str6" points="15685,13637 16471,15000 15685,16363 "/>
      <line class="fil4 str7" x1="14315" y1="13637" x2="15685" y2= "16363" />
     </g>
    </g>
   </g>
  </g>
 </g>
</svg>
